<svg width="184" height="20" viewBox="0 0 184 20" fill="none" xmlns="http://www.w3.org/2000/svg">
<path d="M11.084 16.9624L0.805664 12.4214V10.0532L11.084 5.52441V8.47852L4.5166 11.042L3.69873 11.2251V11.2983L4.5166 11.4937L11.084 14.0083V16.9624ZM12.2192 19.5259L19.5923 0.226562H22.3389L14.978 19.5259H12.2192ZM23.6206 17.1333V14.2158L30.3955 11.6035L31.2622 11.4204V11.3472L30.3955 11.1274L23.6206 8.58838V5.68311L34.1675 10.2241V12.5801L23.6206 17.1333Z" fill="#256767"/>
<path d="M41.7969 18V15.8638L43.7134 15.4609V2.79004L41.7969 2.375V0.226562H43.7134H49.5972C51.1841 0.226562 52.5838 0.600911 53.7964 1.34961C55.009 2.09017 55.953 3.11963 56.6284 4.43799C57.312 5.74821 57.6538 7.25374 57.6538 8.95459V9.28418C57.6538 10.9688 57.3161 12.4702 56.6406 13.7886C55.9733 15.0988 55.0374 16.1283 53.833 16.877C52.6286 17.6257 51.2329 18 49.646 18H41.7969ZM47.2778 15.2778H49.4629C50.4476 15.2778 51.2817 15.0215 51.9653 14.5088C52.6489 13.988 53.1698 13.2759 53.5278 12.3726C53.894 11.4692 54.0771 10.4398 54.0771 9.28418V8.94238C54.0771 7.77051 53.894 6.73698 53.5278 5.8418C53.1698 4.93848 52.6489 4.23454 51.9653 3.72998C51.2817 3.21729 50.4476 2.96094 49.4629 2.96094H47.2778V15.2778ZM65.6128 18.2563C64.3514 18.2563 63.2487 17.9797 62.3047 17.4263C61.3607 16.8647 60.6283 16.0957 60.1074 15.1191C59.5947 14.1426 59.3384 13.0277 59.3384 11.7744V11.2861C59.3384 9.97591 59.5825 8.81624 60.0708 7.80713C60.5591 6.78988 61.2467 5.99235 62.1338 5.41455C63.029 4.82861 64.0828 4.53971 65.2954 4.54785C66.4917 4.54785 67.4967 4.78385 68.3105 5.25586C69.1243 5.72786 69.7428 6.40739 70.166 7.29443C70.5892 8.18148 70.8008 9.2557 70.8008 10.5171V12.458H63.0371L63.0127 12.5312C63.0615 13.109 63.2039 13.6258 63.4399 14.0815C63.6841 14.5291 64.0259 14.8831 64.4653 15.1436C64.9048 15.3958 65.4378 15.522 66.0645 15.522C66.7155 15.522 67.3218 15.4406 67.8833 15.2778C68.453 15.1069 69.0063 14.8587 69.5435 14.5332L70.5078 16.7305C69.9626 17.1699 69.2749 17.5361 68.4448 17.8291C67.6229 18.1139 66.6789 18.2563 65.6128 18.2563ZM63.0615 10.1021H67.4683V9.78467C67.4683 9.24756 67.395 8.78776 67.2485 8.40527C67.1102 8.01465 66.8823 7.71354 66.5649 7.50195C66.2557 7.29036 65.8529 7.18457 65.3564 7.18457C64.8844 7.18457 64.4857 7.31071 64.1602 7.56299C63.8346 7.80713 63.5783 8.14486 63.3911 8.57617C63.2121 9.00749 63.09 9.49577 63.0249 10.041L63.0615 10.1021ZM77.0508 18L73.0591 7.16016L71.6309 6.94043V4.79199H78.0396V6.92822L76.6479 7.17236L78.6377 13.166L78.9429 14.1914H79.0161L79.3579 13.166L81.543 7.18457L79.9194 6.92822V4.79199H86.3159V6.94043L84.8511 7.18457L80.6763 18H77.0508ZM93.4082 18V15.8638L95.3003 15.4976V2.74121L93.4082 2.375V0.226562H107.556V5.09717H104.822L104.663 2.97314H98.8647V7.86816H105.09V10.6147H98.8647V15.4976L100.769 15.8638V18H93.4082ZM114.661 18.2563C113.359 18.2563 112.24 17.9715 111.304 17.4019C110.368 16.8322 109.652 16.0428 109.155 15.0337C108.659 14.0164 108.411 12.8486 108.411 11.5303V11.2739C108.411 9.9637 108.659 8.80404 109.155 7.79492C109.652 6.77767 110.364 5.98421 111.292 5.41455C112.227 4.83675 113.342 4.54785 114.636 4.54785C115.946 4.54785 117.065 4.83675 117.993 5.41455C118.921 5.98421 119.633 6.7736 120.129 7.78271C120.626 8.79183 120.874 9.95557 120.874 11.2739V11.5303C120.874 12.8486 120.626 14.0164 120.129 15.0337C119.633 16.0428 118.921 16.8322 117.993 17.4019C117.065 17.9715 115.955 18.2563 114.661 18.2563ZM114.661 15.522C115.279 15.522 115.784 15.3551 116.174 15.0215C116.565 14.6878 116.854 14.224 117.041 13.6299C117.228 13.0277 117.322 12.3278 117.322 11.5303V11.2739C117.322 10.4927 117.228 9.80501 117.041 9.21094C116.854 8.60872 116.561 8.14079 116.162 7.80713C115.771 7.46533 115.263 7.29443 114.636 7.29443C114.026 7.29443 113.521 7.46533 113.123 7.80713C112.724 8.14079 112.431 8.60872 112.244 9.21094C112.065 9.80501 111.975 10.4927 111.975 11.2739V11.5303C111.975 12.3278 112.065 13.0277 112.244 13.6299C112.431 14.2321 112.724 14.7 113.123 15.0337C113.521 15.3592 114.034 15.522 114.661 15.522ZM122.742 18V15.8638L124.451 15.4976V7.30664L122.559 6.94043V4.79199H127.771L127.905 6.42773L127.93 6.7207C128.255 6.00456 128.658 5.46338 129.138 5.09717C129.618 4.73096 130.192 4.54785 130.859 4.54785C131.071 4.54785 131.303 4.5682 131.555 4.60889C131.807 4.64144 132.031 4.6862 132.227 4.74316L131.848 8.02686L130.078 7.9292C129.574 7.90479 129.163 7.99023 128.845 8.18555C128.536 8.38086 128.259 8.66162 128.015 9.02783V15.4976L129.724 15.8638V18H122.742ZM139.368 18.2563C138.106 18.2563 137.004 17.9797 136.06 17.4263C135.116 16.8647 134.383 16.0957 133.862 15.1191C133.35 14.1426 133.093 13.0277 133.093 11.7744V11.2861C133.093 9.97591 133.337 8.81624 133.826 7.80713C134.314 6.78988 135.002 5.99235 135.889 5.41455C136.784 4.82861 137.838 4.53971 139.05 4.54785C140.247 4.54785 141.252 4.78385 142.065 5.25586C142.879 5.72786 143.498 6.40739 143.921 7.29443C144.344 8.18148 144.556 9.2557 144.556 10.5171V12.458H136.792L136.768 12.5312C136.816 13.109 136.959 13.6258 137.195 14.0815C137.439 14.5291 137.781 14.8831 138.22 15.1436C138.66 15.3958 139.193 15.522 139.819 15.522C140.47 15.522 141.077 15.4406 141.638 15.2778C142.208 15.1069 142.761 14.8587 143.298 14.5332L144.263 16.7305C143.717 17.1699 143.03 17.5361 142.2 17.8291C141.378 18.1139 140.434 18.2563 139.368 18.2563ZM136.816 10.1021H141.223V9.78467C141.223 9.24756 141.15 8.78776 141.003 8.40527C140.865 8.01465 140.637 7.71354 140.32 7.50195C140.011 7.29036 139.608 7.18457 139.111 7.18457C138.639 7.18457 138.241 7.31071 137.915 7.56299C137.59 7.80713 137.333 8.14486 137.146 8.57617C136.967 9.00749 136.845 9.49577 136.78 10.041L136.816 10.1021ZM150.806 18L146.814 7.16016L145.386 6.94043V4.79199H151.794V6.92822L150.403 7.17236L152.393 13.166L152.698 14.1914H152.771L153.113 13.166L155.298 7.18457L153.674 6.92822V4.79199H160.071V6.94043L158.606 7.18457L154.431 18H150.806ZM167.175 18.2563C165.914 18.2563 164.811 17.9797 163.867 17.4263C162.923 16.8647 162.191 16.0957 161.67 15.1191C161.157 14.1426 160.901 13.0277 160.901 11.7744V11.2861C160.901 9.97591 161.145 8.81624 161.633 7.80713C162.122 6.78988 162.809 5.99235 163.696 5.41455C164.591 4.82861 165.645 4.53971 166.858 4.54785C168.054 4.54785 169.059 4.78385 169.873 5.25586C170.687 5.72786 171.305 6.40739 171.729 7.29443C172.152 8.18148 172.363 9.2557 172.363 10.5171V12.458H164.6L164.575 12.5312C164.624 13.109 164.766 13.6258 165.002 14.0815C165.247 14.5291 165.588 14.8831 166.028 15.1436C166.467 15.3958 167 15.522 167.627 15.522C168.278 15.522 168.884 15.4406 169.446 15.2778C170.015 15.1069 170.569 14.8587 171.106 14.5332L172.07 16.7305C171.525 17.1699 170.837 17.5361 170.007 17.8291C169.185 18.1139 168.241 18.2563 167.175 18.2563ZM164.624 10.1021H169.031V9.78467C169.031 9.24756 168.958 8.78776 168.811 8.40527C168.673 8.01465 168.445 7.71354 168.127 7.50195C167.818 7.29036 167.415 7.18457 166.919 7.18457C166.447 7.18457 166.048 7.31071 165.723 7.56299C165.397 7.80713 165.141 8.14486 164.954 8.57617C164.775 9.00749 164.653 9.49577 164.587 10.041L164.624 10.1021ZM174.28 18V15.8638L175.989 15.4976V7.30664L174.097 6.94043V4.79199H179.309L179.443 6.42773L179.468 6.7207C179.793 6.00456 180.196 5.46338 180.676 5.09717C181.156 4.73096 181.73 4.54785 182.397 4.54785C182.609 4.54785 182.841 4.5682 183.093 4.60889C183.346 4.64144 183.569 4.6862 183.765 4.74316L183.386 8.02686L181.616 7.9292C181.112 7.90479 180.701 7.99023 180.383 8.18555C180.074 8.38086 179.797 8.66162 179.553 9.02783V15.4976L181.262 15.8638V18H174.28Z" fill="#1E1E1E"/>
</svg>
