<svg width="28" height="28" viewBox="0 0 28 28" fill="none" xmlns="http://www.w3.org/2000/svg">
<g clip-path="url(#clip0_113_173)">
<path d="M11.9287 9.4814L13.2421 10.6779L11.5477 11.2123L10.8156 12.8312L9.78375 11.3847L8.01783 11.1888L9.07461 9.76048L8.71531 8.02044L10.4003 8.58415L11.9441 7.70471L11.9287 9.4814Z" fill="#1E1E1E"/>
<path d="M3.76003 12.9928L4.86386 13.362L5.87535 12.7858L5.8652 13.9498L6.72563 14.7337L5.61555 15.0838L5.13593 16.1443L4.45996 15.1967L3.30295 15.0683L3.9954 14.1326L3.76003 12.9928Z" fill="#1E1E1E"/>
<path d="M14.3601 14.2114C16.3444 10.8313 16.1168 6.76431 14.1155 3.68812C15.6134 3.78966 17.1112 4.23062 18.494 5.04237C23.2568 7.83838 24.8512 13.966 22.0552 18.7288C19.2592 23.4916 13.1316 25.086 8.36877 22.29C6.98601 21.4782 5.87093 20.3853 5.05219 19.1268C8.71369 19.375 12.3758 17.5914 14.3601 14.2114Z" fill="#1E1E1E"/>
</g>
<defs>
<clipPath id="clip0_113_173">
<rect width="20" height="20" fill="white" transform="matrix(-0.86238 -0.506261 -0.506261 0.86238 27.6864 10.4388)"/>
</clipPath>
</defs>
</svg>
