<svg width="30" height="30" viewBox="0 0 30 30" fill="none" xmlns="http://www.w3.org/2000/svg">
<g clip-path="url(#clip0_116_145)">
<path d="M29.6219 27.8512L21.0144 19.2377C22.7113 17.2026 23.7319 14.6019 23.7319 11.7615C23.7319 5.28131 18.4138 0.0123291 11.8721 0.0123291C5.33046 0.0123291 0 5.28746 0 11.7676C0 18.2478 5.31817 23.5168 11.8598 23.5168C14.6388 23.5168 17.1964 22.5638 19.2253 20.9714L27.8635 29.6096C28.3677 30.1138 29.1177 30.1138 29.6219 29.6096C30.126 29.1055 30.126 28.3554 29.6219 27.8512ZM2.52075 11.7676C2.52075 6.67695 6.7138 2.53923 11.8598 2.53923C17.0058 2.53923 21.1989 6.67695 21.1989 11.7676C21.1989 16.8583 17.0058 20.996 11.8598 20.996C6.7138 20.996 2.52075 16.8522 2.52075 11.7676Z" fill="#F5F5F5"/>
</g>
<defs>
<clipPath id="clip0_116_145">
<rect width="30" height="30" fill="white"/>
</clipPath>
</defs>
</svg>
