<svg width="20" height="20" viewBox="0 0 20 20" fill="none" xmlns="http://www.w3.org/2000/svg">
<g clip-path="url(#clip0_113_162)">
<path d="M9.99995 5.5817C12.4401 5.5817 14.4182 7.55983 14.4182 9.99999C14.4182 12.4401 12.4401 14.4183 9.99995 14.4183C7.5598 14.4183 5.58167 12.4401 5.58167 9.99999C5.58167 7.55983 7.5598 5.5817 9.99995 5.5817Z" fill="#FFF500"/>
<path d="M9.99996 4.85916C7.16537 4.85916 4.85922 7.1653 4.85922 9.99989C4.85922 12.8345 7.16537 15.1406 9.99996 15.1406C12.8345 15.1406 15.1407 12.8345 15.1407 9.99989C15.1407 7.1653 12.8345 4.85916 9.99996 4.85916ZM9.99996 13.6958C7.96208 13.6958 6.30411 12.0379 6.30411 9.99999C6.30411 7.96211 7.96208 6.30415 9.99996 6.30415C12.0378 6.30415 13.6958 7.96211 13.6958 9.99999C13.6958 12.0379 12.0378 13.6958 9.99996 13.6958Z" fill="#FFF500"/>
<path d="M9.99996 16.2062C9.60097 16.2062 9.27751 16.5297 9.27751 16.9286V19.2776C9.27751 19.6765 9.60097 20 9.99996 20C10.3989 20 10.7224 19.6765 10.7224 19.2776V16.9286C10.7224 16.5297 10.3989 16.2062 9.99996 16.2062Z" fill="#FFF500"/>
<path d="M9.99996 1.83582e-05C9.60097 1.83582e-05 9.27751 0.323481 9.27751 0.722464V3.07138C9.27751 3.47036 9.60097 3.79382 9.99996 3.79382C10.3989 3.79382 10.7224 3.47036 10.7224 3.07138V0.722464C10.7224 0.323385 10.3989 1.83582e-05 9.99996 1.83582e-05Z" fill="#FFF500"/>
<path d="M19.2775 9.27758H16.9286C16.5296 9.27758 16.2061 9.60104 16.2061 10C16.2061 10.399 16.5296 10.7225 16.9286 10.7225H19.2775C19.6765 10.7225 20 10.399 20 10C20 9.60104 19.6766 9.27758 19.2775 9.27758Z" fill="#FFF500"/>
<path d="M3.07131 9.27758H0.7224C0.323417 9.27758 -4.57764e-05 9.60104 -4.57764e-05 10C-4.57764e-05 10.399 0.323417 10.7225 0.7224 10.7225H3.07131C3.4703 10.7225 3.79376 10.399 3.79376 10C3.79376 9.60104 3.4703 9.27758 3.07131 9.27758Z" fill="#FFF500"/>
<path d="M14.8993 14.1769C14.7145 14.1769 14.5295 14.2474 14.3885 14.3885C14.1063 14.6707 14.1063 15.1281 14.3885 15.4102L16.0494 17.071C16.3316 17.3532 16.789 17.3532 17.0711 17.071C17.3532 16.7889 17.3532 16.3314 17.0711 16.0494L15.4101 14.3885C15.2691 14.2474 15.0842 14.1769 14.8993 14.1769Z" fill="#FFF500"/>
<path d="M3.43966 2.71724C3.25481 2.71724 3.06987 2.78775 2.92884 2.92887C2.6467 3.21101 2.6467 3.66846 2.92884 3.9505L4.5898 5.61145C4.87193 5.89359 5.32939 5.89359 5.61143 5.61145C5.89357 5.32932 5.89357 4.87186 5.61143 4.58982L3.95048 2.92887C3.80946 2.78775 3.62461 2.71724 3.43966 2.71724Z" fill="#FFF500"/>
<path d="M16.5601 2.71724C16.3753 2.71724 16.1904 2.78775 16.0493 2.92887L14.3884 4.58982C14.1062 4.87196 14.1062 5.32941 14.3884 5.61145C14.6705 5.89359 15.128 5.89359 15.41 5.61145L17.071 3.9505C17.3531 3.66836 17.3531 3.21091 17.071 2.92887C16.9299 2.78775 16.7451 2.71724 16.5601 2.71724Z" fill="#FFF500"/>
<path d="M5.10061 14.1769C4.91576 14.1769 4.73082 14.2474 4.5898 14.3885L2.92884 16.0494C2.6467 16.3315 2.6467 16.7889 2.92884 17.071C3.21098 17.3532 3.66844 17.3532 3.95048 17.071L5.61143 15.4102C5.89357 15.128 5.89357 14.6707 5.61143 14.3885C5.47041 14.2474 5.28556 14.1769 5.10061 14.1769Z" fill="#FFF500"/>
</g>
<defs>
<clipPath id="clip0_113_162">
<rect width="20" height="20" fill="white" transform="matrix(1 0 0 -1 0 20)"/>
</clipPath>
</defs>
</svg>
